<svg xmlns="http://www.w3.org/2000/svg" version="1.0" viewBox="0 0 240 80"><g><g transform="translate(-130 -160)"><rect width="240" height="80" x="-370" y="160" ry="20" style="fill:#900;fill-opacity:1;stroke:none" transform="scale(-1 1)"/><path d="M149.97 186.37c0-1.24.42-2.2 1.26-2.91.7-.71 1.63-1.06 2.78-1.06.88 0 1.76.37 2.65 1.12.79.7 1.19 1.66 1.19 2.85l-.47 23.69 9.93-.46c1.01 0 1.8.4 2.38 1.19.58.75.86 1.78.86 3.1 0 1.07-.28 1.95-.86 2.65-.53.71-1.32 1.06-2.38 1.06h-13.96c-.8 0-1.57-.3-2.32-.92a2.63 2.63 0 0 1-1.06-2.12v-28.2zm24.91 27.26-.26-26.93c0-1.28.4-2.32 1.19-3.11.75-.66 1.76-1 3.04-1s2.27.34 2.98 1c.7.66 1.06 1.56 1.06 2.71l-.33 27.33c0 1.24-.38 2.23-1.13 2.98a3.74 3.74 0 0 1-2.65 1.06 3.76 3.76 0 0 1-2.77-1.06 3.9 3.9 0 0 1-1.13-2.98zm13.31-27.26c0-.88.31-1.72.93-2.52.62-.88 1.32-1.32 2.12-1.32h12.04c2.16 0 4.04.93 5.63 2.78a9.32 9.32 0 0 1 2.38 6.22c0 2.87-1.28 5.1-3.84 6.68a7.44 7.44 0 0 1 5.16 3.05 9.4 9.4 0 0 1 1.6 5.56c0 2.82-.8 5.29-2.4 7.4-1.76 2.35-3.96 3.52-6.6 3.52h-13.97c-.8 0-1.5-.25-2.12-.73a2.32 2.32 0 0 1-.93-1.92v-28.72zm13.9 15.81h-5.82v8.6h5.82c1.81 0 3.13-.37 3.97-1.12.7-.7 1.06-1.52 1.06-2.45 0-.57-.1-1.3-.33-2.18a3.99 3.99 0 0 0-.8-1.79c-.7-.7-2-1.06-3.9-1.06zm-1.19-11.97h-4.63v7.34h5.82c1.33 0 1.99-.97 1.99-2.91 0-1.59-.22-2.74-.66-3.44-.4-.66-1.24-1-2.52-1zm17.03-5.1c0-.62.27-1.3.8-2.05.61-.7 1.23-1.06 1.85-1.06h13.1c2.6 0 4.88 1.08 6.82 3.24a11.09 11.09 0 0 1 2.84 7.28c0 2.03-.62 3.86-1.85 5.5-1.37 1.72-3.44 3.06-6.22 4.03l7.87 7.94c.84.97 1.26 2.01 1.26 3.11a3.6 3.6 0 0 1-1.06 2.65c-.26.35-.7.8-1.29 1.32-.6.53-1.11.8-1.55.8-1.5 0-2.87-.75-4.1-2.25l-10.46-12.84v10.52c0 1.28-.42 2.38-1.26 3.31-.8.8-1.76 1.2-2.91 1.2-1.1 0-2-.4-2.71-1.2-.75-.7-1.13-1.8-1.13-3.3v-28.2zm8 3.77v8.14h5.9c1.63 0 2.75-.4 3.37-1.19a5.08 5.08 0 0 0 1.06-3.18 4.6 4.6 0 0 0-1.06-2.58c-.62-.8-1.74-1.19-3.37-1.19h-5.9zm22.7-3.04c0-1.06.3-1.9.92-2.52a3.6 3.6 0 0 1 2.45-.92h12.84c1.2 0 2.1.44 2.71 1.32.62.84.93 1.79.93 2.85 0 1.19-.24 2.14-.73 2.84a2.65 2.65 0 0 1-2.25 1.06l-10.59-.4v6.75l9.93-.4c.93 0 1.66.38 2.18 1.13.58.75.87 1.79.87 3.11 0 1.06-.23 1.97-.67 2.71a2.45 2.45 0 0 1-2.05 1.06l-10.26-.33v6.22l9.93-.46c1.24 0 2.18.4 2.85 1.2.66.7.99 1.73.99 3.1a3.7 3.7 0 0 1-.8 2.38 2.23 2.23 0 0 1-1.91 1.06h-14.7c-.52 0-1.1-.3-1.72-.92a2.2 2.2 0 0 1-.92-1.79v-29.05zm29.13 23.42c1.23 0 2.2.42 2.91 1.26.7.93 1.06 1.94 1.06 3.05a4.3 4.3 0 0 1-1 2.84 3.71 3.71 0 0 1-2.97 1.33 4.06 4.06 0 0 1-3.18-1.33 4.82 4.82 0 0 1-1.06-2.98c0-1.1.38-2.07 1.13-2.9.7-.85 1.74-1.27 3.1-1.27zm8.83 4.64v-27.86c0-2.3 1-3.44 2.98-3.44h13.57c1.1 0 1.98.4 2.65 1.19.61.84.92 1.76.92 2.78 0 1.32-.22 2.25-.66 2.78a2.4 2.4 0 0 1-2.05.99l-10.79-.4v5.63l9.53-.4c1.02 0 1.79.35 2.32 1.06.57.7.86 1.72.86 3.04a3.7 3.7 0 0 1-.8 2.38c-.57.8-1.36 1.2-2.38 1.2h-9.53v11.05a3.5 3.5 0 0 1-1.19 2.84c-.75.66-1.63 1-2.65 1-.44 0-.76-.08-.96-.24a4.1 4.1 0 0 1-.69-.76c-.75-.61-1.13-1.56-1.13-2.84zm37.47-27 5.36 15.88 5.75-15.88a6.74 6.74 0 0 1 2.25-3.05 5.29 5.29 0 0 1 3.18-1.06c1.2 0 2.25.4 3.18 1.2a6.03 6.03 0 0 1 1.92 3.7l4.36 25.94v.86a3.5 3.5 0 0 1-.99 2.58c-.75.62-1.87.93-3.37.93-.97 0-1.83-.3-2.58-.93-.49-.4-1-2.22-1.53-5.49l-1.98-16.21h-.07c-.13 0-.29.04-.46.13l-5.03 16.08c-1.37 4.24-2.78 6.35-4.24 6.35-1.36 0-2.8-2.11-4.3-6.35l-5.23-15.09-.2-.33h-.06c-.13 0-.33.09-.6.27l-.99 13.96c-.26 1.94-.77 3.7-1.52 5.26-.75 1.57-1.68 2.35-2.78 2.35-1.85 0-3.15-.37-3.9-1.12-.8-.71-1.2-1.62-1.2-2.72v-.6l4.5-25.87c.27-1.54.9-2.76 1.92-3.64a5.45 5.45 0 0 1 3.44-1.32c2.48 0 4.2 1.39 5.17 4.17z" style="font-size:67.7647px;font-style:normal;font-variant:normal;font-weight:400;font-stretch:normal;text-align:start;line-height:125%;text-anchor:start;fill:#fff;fill-opacity:1;stroke:none;font-family:Dyuthi"/></g></g></svg>