<svg xmlns="http://www.w3.org/2000/svg" xmlns:xlink="http://www.w3.org/1999/xlink" viewBox="0 0 28.22 32"><path fill="#eb743b" d="M14.67 0v32l13.55-7.78V7.78Z" style="stroke-width:.222222"/><path fill="#353070" d="M13.56 0 0 7.78v16.44L13.56 32Z" style="stroke-width:.222222"/><g opacity=".07" transform="translate(-2.08 -1.74) scale(.22222222)"><defs><path id="a" d="M75.35 33.24h51.44v90.8H75.35Z"/></defs><clipPath id="b"><use xlink:href="#a" overflow="visible"/></clipPath><path d="M92.66 99.56a2.1 2.1 0 0 1 1.82-1.03c.37 0 .75.1 1.07.3a2.12 2.12 0 0 1 .74 2.9 2.1 2.1 0 0 1-1.82 1.02c-.38 0-.75-.1-1.08-.3a2.1 2.1 0 0 1-.97-1.3 2.1 2.1 0 0 1 .24-1.6m12.6 22.37a2.12 2.12 0 0 1-2.98-.23 2.12 2.12 0 0 1 .23-2.98 2.08 2.08 0 0 1 1.37-.5 2.12 2.12 0 0 1 2.11 2.27 2.09 2.09 0 0 1-.73 1.44m-9.53-58.84a2.13 2.13 0 0 1 2.92-.66 2.12 2.12 0 0 1 .66 2.92 2.12 2.12 0 0 1-2.92.66 2.13 2.13 0 0 1-.66-2.92m6.38-20.19a2.14 2.14 0 0 1-2.9.66l-.1-.07a2.1 2.1 0 0 1-.56-2.85 2.1 2.1 0 0 1 1.78-.98 2.11 2.11 0 0 1 1.78 3.24m16.77 11.6a2.1 2.1 0 0 1 1.78-.98 2.1 2.1 0 0 1 2.06 1.66 2.08 2.08 0 0 1-.28 1.58 2.14 2.14 0 0 1-2.9.65l-.1-.06a2.1 2.1 0 0 1-.56-2.85m0 23.46a2.1 2.1 0 0 1 1.78-.98 2.1 2.1 0 0 1 2.06 1.65 2.08 2.08 0 0 1-.28 1.6 2.14 2.14 0 0 1-2.9.65l-.1-.07a2.1 2.1 0 0 1-.56-2.85m0 26.3a2.1 2.1 0 0 1 1.78-.97 2.1 2.1 0 0 1 2.06 1.65 2.08 2.08 0 0 1-.28 1.59 2.14 2.14 0 0 1-2.9.65l-.1-.06a2.1 2.1 0 0 1-.56-2.85" clip-path="url(#b)"/><path d="M108.53 113.93a6.11 6.11 0 0 0-8.63-.67 6.12 6.12 0 0 0-2.09 5.4c-1.95.7-4.26 1.37-5.33 1.33-.82-.04-1.3-.34-2.22-.97a10.7 10.7 0 0 0-4.15-1.85c2.94-2.76 6.01-6.83 8.58-12.83a6.15 6.15 0 0 0 5.04-2.97 6.14 6.14 0 0 0-2.12-8.4 6.13 6.13 0 0 0-3.13-.86 6.15 6.15 0 0 0-5.27 2.99 6.08 6.08 0 0 0-.67 4.63 6.08 6.08 0 0 0 2.3 3.43c-4.05 9.22-9.22 13.08-12.57 14.69a2.02 2.02 0 0 0-.36.16c-1.18.54-2.05.7-2.55.81v4c.27-.03 1.88-.11 4.24-1.19 5.35-1.36 6.84-.35 8.4.71 1.03.7 2.3 1.55 4.27 1.66h.31c2.11 0 5.17-1.02 7.02-1.72a6.13 6.13 0 0 0 4.29 1.75 6.11 6.11 0 0 0 3.98-1.47 6.07 6.07 0 0 0 2.12-4.18 6.07 6.07 0 0 0-1.46-4.45M92.66 97.15a2.11 2.11 0 0 1 3.63 2.17 2.1 2.1 0 0 1-1.82 1.03c-.38 0-.75-.1-1.08-.3a2.1 2.1 0 0 1-.97-1.3 2.1 2.1 0 0 1 .24-1.6m12.6 22.36a2.12 2.12 0 0 1-2.98-.22 2.12 2.12 0 0 1 .23-2.98 2.08 2.08 0 0 1 1.37-.51 2.12 2.12 0 0 1 2.11 2.27 2.09 2.09 0 0 1-.73 1.44m1.04-81.48a6.09 6.09 0 0 0-2.7-3.85 6.12 6.12 0 0 0-3.27-.94 6.08 6.08 0 0 0-5.17 2.85 6.1 6.1 0 0 0 .14 6.76c-3.64 4.12-8.7 4.31-9.94 4.29a29.15 29.15 0 0 0-10-2.32v4c2.44.14 5.55.69 8.74 2.14h.02a21.57 21.57 0 0 1 8.6 7.04 6.36 6.36 0 0 0-.38.54 6.14 6.14 0 0 0 5.18 9.4 6.1 6.1 0 0 0 5.18-2.86 6.13 6.13 0 0 0-1.91-8.45 6.21 6.21 0 0 0-4.67-.75 25.99 25.99 0 0 0-5.34-5.57c2.52-.78 5.4-2.27 7.78-5.1a6.18 6.18 0 0 0 1.77.27 6.08 6.08 0 0 0 5.17-2.85 6.05 6.05 0 0 0 .8-4.6M95.73 60.67a2.13 2.13 0 0 1 2.92-.65 2.12 2.12 0 0 1 .66 2.92 2.12 2.12 0 0 1-2.92.66 2.13 2.13 0 0 1-.66-2.93m6.38-20.18a2.14 2.14 0 0 1-2.9.65l-.1-.06a2.1 2.1 0 0 1-.56-2.85 2.1 2.1 0 0 1 1.78-.98 2.11 2.11 0 0 1 1.78 3.24" clip-path="url(#b)"/><path d="M115 79.01a6.04 6.04 0 0 0 2.11 2.65 6.1 6.1 0 0 0 3.55 1.14 6.08 6.08 0 0 0 5.17-2.85 6.06 6.06 0 0 0 .8-4.6 6.1 6.1 0 0 0-2.7-3.85 6.13 6.13 0 0 0-3.27-.94c-.12 0-.25 0-.37.02-.71-3.16-.92-7.77.03-11.27l.34.03a6.08 6.08 0 0 0 5.17-2.85 6.06 6.06 0 0 0 .8-4.6 6.1 6.1 0 0 0-2.7-3.85 6.13 6.13 0 0 0-3.27-.94 6.08 6.08 0 0 0-5.17 2.85 6.1 6.1 0 0 0 1.02 7.76l.08.06c-1.35 4.52-1.15 10.32-.04 14.42-.14.13-.3.25-.43.4a6.33 6.33 0 0 0-.63.82 6.2 6.2 0 0 0-.71 1.58 15.2 15.2 0 0 0-6.82 2.73c-2.04 1.32-3.96 2.57-9.64 2.66a32.54 32.54 0 0 0-5.29-.11c-1.43.05-2.91.1-4.85 0-1.33-.07-2.1-.88-3.46-2.42-1.8-2.06-4.21-4.65-9.36-5.03v4c3.29.3 4.8 1.9 6.35 3.67 1.49 1.7 3.18 3.62 6.26 3.78 2.11.12 3.76.05 5.2 0 2.5-.09 4.46-.16 7.86.69 2.6.64 12.1 9.67 14.77 14.32l-.31.43a6.1 6.1 0 0 0 1.62 8.26l.28.19a6.1 6.1 0 0 0 3.27.94 6.08 6.08 0 0 0 5.17-2.84 6.06 6.06 0 0 0 .8-4.6 6.1 6.1 0 0 0-2.7-3.85 6.13 6.13 0 0 0-4.81-.75c-2.56-4.19-8.65-10.46-13.19-13.8 1.81-.62 3.05-1.43 4.21-2.18A11.3 11.3 0 0 1 115 79m3.88-26.93a2.1 2.1 0 0 1 1.78-.98 2.1 2.1 0 0 1 2.07 1.66 2.08 2.08 0 0 1-.28 1.58 2.14 2.14 0 0 1-2.92.66l-.09-.07a2.1 2.1 0 0 1-.56-2.84m0 23.46a2.1 2.1 0 0 1 1.78-.98 2.1 2.1 0 0 1 2.06 1.65 2.08 2.08 0 0 1-.28 1.59 2.14 2.14 0 0 1-2.9.65l-.1-.06a2.1 2.1 0 0 1-.56-2.85m0 26.3a2.1 2.1 0 0 1 1.78-.98 2.1 2.1 0 0 1 2.06 1.66 2.08 2.08 0 0 1-.28 1.58 2.14 2.14 0 0 1-2.9.65l-.1-.06a2.1 2.1 0 0 1-.56-2.85" clip-path="url(#b)"/></g><path fill="#d3562c" d="M22.04 24.25a1.36 1.36 0 0 0-1.92-.15 1.36 1.36 0 0 0-.46 1.2c-.44.15-.95.3-1.19.3-.18-.02-.29-.08-.5-.22a2.38 2.38 0 0 0-.91-.41 8.36 8.36 0 0 0 1.9-2.85 1.37 1.37 0 0 0 1.12-.67c.39-.64.18-1.48-.47-1.86a1.36 1.36 0 0 0-.7-.2 1.37 1.37 0 0 0-1.16.67 1.35 1.35 0 0 0-.15 1.03 1.35 1.35 0 0 0 .5.76c-.9 2.05-2.04 2.91-2.78 3.27a.45.45 0 0 0-.08.03c-.27.12-.46.16-.57.18v.9c.06-.01.42-.03.94-.27 1.19-.3 1.52-.08 1.87.15.23.16.5.35.95.37h.06c.47 0 1.15-.22 1.56-.38a1.36 1.36 0 0 0 .96.4 1.36 1.36 0 0 0 .88-.34 1.35 1.35 0 0 0 .47-.93 1.35 1.35 0 0 0-.32-.98m-3.53-3.73a.47.47 0 0 1 .8.48.47.47 0 0 1-.4.23.47.47 0 0 1-.24-.07.46.46 0 0 1-.21-.29.47.47 0 0 1 .05-.35m2.8 4.97a.47.47 0 0 1-.66-.05.47.47 0 0 1 .05-.67.46.46 0 0 1 .3-.1.47.47 0 0 1 .47.5.46.46 0 0 1-.16.32M21.54 7.16a1.35 1.35 0 0 0-.6-.86 1.36 1.36 0 0 0-.72-.2 1.35 1.35 0 0 0-1.15.63 1.36 1.36 0 0 0 .03 1.5c-.81.91-1.94.96-2.21.95a6.48 6.48 0 0 0-2.22-.51v.89c.54.03 1.23.15 1.94.47.77.35 1.41.87 1.92 1.57a1.38 1.38 0 0 0-.09.12 1.36 1.36 0 0 0 1.15 2.08 1.36 1.36 0 0 0 1.15-.63c.4-.63.21-1.48-.42-1.88-.3-.2-.69-.25-1.04-.17-.34-.48-.74-.89-1.19-1.23.56-.18 1.2-.5 1.73-1.14a1.37 1.37 0 0 0 .4.06 1.35 1.35 0 0 0 1.15-.63 1.34 1.34 0 0 0 .17-1.02m-2.34 5.03a.47.47 0 0 1 .64-.15.47.47 0 0 1 .15.65.47.47 0 0 1-.65.15.47.47 0 0 1-.14-.65M20.6 7.7a.48.48 0 0 1-.64.15l-.03-.01a.47.47 0 0 1-.12-.64.47.47 0 0 1 .4-.22.47.47 0 0 1 .4.72" style="stroke-width:.222222"/><path fill="#d3562c" d="M23.48 16.49a1.34 1.34 0 0 0 .47.58 1.36 1.36 0 0 0 .78.26 1.35 1.35 0 0 0 1.15-.63 1.35 1.35 0 0 0 .18-1.03 1.36 1.36 0 0 0-.6-.85 1.36 1.36 0 0 0-.72-.21h-.09c-.16-.7-.2-1.72.01-2.5h.07a1.35 1.35 0 0 0 1.15-.63 1.35 1.35 0 0 0 .18-1.02 1.36 1.36 0 0 0-.6-.86 1.36 1.36 0 0 0-.72-.2 1.35 1.35 0 0 0-1.15.63 1.36 1.36 0 0 0 .22 1.72l.02.02c-.3 1-.26 2.29 0 3.2l-.1.09a1.4 1.4 0 0 0-.14.18 1.38 1.38 0 0 0-.16.35c-.75.11-1.16.37-1.52.6-.45.3-.88.58-2.14.6a7.23 7.23 0 0 0-1.18-.02c-.31 0-.64.02-1.07 0-.3-.02-.47-.2-.77-.54a2.8 2.8 0 0 0-2.08-1.12V16c.73.07 1.06.42 1.4.81.34.38.71.8 1.4.85.47.02.84 0 1.16 0 .55-.02.99-.04 1.74.15.58.14 2.7 2.15 3.29 3.18l-.07.1c-.4.6-.23 1.42.36 1.83l.06.04c.22.14.47.21.72.21a1.35 1.35 0 0 0 1.15-.63 1.35 1.35 0 0 0 .18-1.02 1.36 1.36 0 0 0-.6-.86 1.36 1.36 0 0 0-1.07-.16 13.45 13.45 0 0 0-2.93-3.07c.4-.14.68-.32.94-.48.31-.21.58-.38 1.08-.46m.86-5.99a.47.47 0 0 1 .4-.22.47.47 0 0 1 .45.37.46.46 0 0 1-.06.35.48.48 0 0 1-.65.15l-.02-.01a.47.47 0 0 1-.12-.64m0 5.22a.47.47 0 0 1 .4-.22.47.47 0 0 1 .46.37.46.46 0 0 1-.07.35.48.48 0 0 1-.65.14l-.02-.01a.47.47 0 0 1-.12-.63m0 5.84a.47.47 0 0 1 .4-.22c.08 0 .17.03.25.08.1.06.18.17.2.3a.46.46 0 0 1-.06.34.48.48 0 0 1-.65.15l-.02-.01a.47.47 0 0 1-.12-.64" style="stroke-width:.222222"/><path fill="#fffedb" d="M22.04 23.58a1.36 1.36 0 0 0-1.92-.15 1.36 1.36 0 0 0-.46 1.2c-.44.16-.95.3-1.19.3-.18-.01-.29-.08-.5-.22a2.38 2.38 0 0 0-.91-.41 8.36 8.36 0 0 0 1.9-2.85 1.37 1.37 0 0 0 1.12-.66c.39-.65.18-1.48-.47-1.87a1.36 1.36 0 0 0-.7-.19 1.37 1.37 0 0 0-1.16.66 1.35 1.35 0 0 0-.15 1.03 1.35 1.35 0 0 0 .5.77c-.9 2.04-2.04 2.9-2.78 3.26a.45.45 0 0 0-.08.04c-.27.12-.46.15-.57.18v.89c.06-.01.42-.03.94-.27 1.19-.3 1.52-.08 1.87.16.23.15.5.34.95.37h.06c.47 0 1.15-.23 1.56-.38a1.36 1.36 0 0 0 .96.38 1.36 1.36 0 0 0 .88-.32 1.35 1.35 0 0 0 .47-.93 1.35 1.35 0 0 0-.32-1m-3.53-3.72a.47.47 0 0 1 .8.48.47.47 0 0 1-.4.23.47.47 0 0 1-.24-.07.46.46 0 0 1-.21-.28.47.47 0 0 1 .05-.36m2.8 4.97a.47.47 0 0 1-.66-.05.47.47 0 0 1 .05-.66.46.46 0 0 1 .3-.12.47.47 0 0 1 .47.51.46.46 0 0 1-.16.32m.23-18.1a1.35 1.35 0 0 0-.6-.86 1.36 1.36 0 0 0-.72-.21 1.35 1.35 0 0 0-1.15.63 1.36 1.36 0 0 0 .03 1.5c-.81.92-1.94.96-2.21.96a6.48 6.48 0 0 0-2.22-.52v.89c.54.03 1.23.15 1.94.47.77.35 1.41.88 1.92 1.57a1.41 1.41 0 0 0-.09.12 1.36 1.36 0 0 0 1.15 2.09 1.36 1.36 0 0 0 1.15-.64c.4-.63.21-1.47-.42-1.87-.3-.2-.69-.25-1.04-.17-.34-.48-.74-.9-1.19-1.24.56-.17 1.2-.5 1.73-1.13a1.37 1.37 0 0 0 .4.06 1.35 1.35 0 0 0 1.15-.63 1.35 1.35 0 0 0 .17-1.03m-2.34 5.03a.47.47 0 0 1 .64-.14.47.47 0 0 1 .15.65.47.47 0 0 1-.65.14.47.47 0 0 1-.14-.65m1.41-4.48a.48.48 0 0 1-.64.14l-.03-.01a.47.47 0 0 1-.12-.63.47.47 0 0 1 .4-.22.47.47 0 0 1 .4.72" style="stroke-width:.222222"/><path fill="#fffedb" d="M23.48 15.82a1.34 1.34 0 0 0 .47.59 1.36 1.36 0 0 0 .78.25 1.35 1.35 0 0 0 1.15-.63 1.35 1.35 0 0 0 .18-1.02 1.36 1.36 0 0 0-.6-.86 1.36 1.36 0 0 0-.72-.2h-.09c-.16-.7-.2-1.73.01-2.5h.07a1.35 1.35 0 0 0 1.15-.64 1.35 1.35 0 0 0 .18-1.02 1.36 1.36 0 0 0-.6-.85 1.36 1.36 0 0 0-.72-.21 1.35 1.35 0 0 0-1.15.63 1.36 1.36 0 0 0 .22 1.73h.02c-.3 1.01-.26 2.3 0 3.21l-.1.1a1.4 1.4 0 0 0-.14.17 1.38 1.38 0 0 0-.16.36c-.75.1-1.16.37-1.52.6-.45.3-.88.57-2.14.6a7.23 7.23 0 0 0-1.18-.03c-.31.01-.64.02-1.07 0-.3-.02-.47-.2-.77-.54a2.8 2.8 0 0 0-2.08-1.12v.9c.73.06 1.06.41 1.4.8.34.38.71.81 1.4.85.47.02.84.01 1.16 0 .55-.02.99-.04 1.74.15.58.14 2.7 2.15 3.29 3.18l-.07.1c-.4.61-.23 1.42.36 1.83l.06.05c.22.13.47.2.72.2a1.35 1.35 0 0 0 1.15-.63 1.35 1.35 0 0 0 .18-1.02 1.36 1.36 0 0 0-.6-.85 1.36 1.36 0 0 0-1.07-.17 13.45 13.45 0 0 0-2.93-3.06c.4-.14.68-.32.94-.5.31-.2.58-.37 1.08-.45m.86-5.98a.47.47 0 0 1 .4-.22.47.47 0 0 1 .45.37.46.46 0 0 1-.06.35.48.48 0 0 1-.65.14l-.02-.01a.47.47 0 0 1-.12-.63m0 5.21a.47.47 0 0 1 .4-.22c.08 0 .17.03.25.07.1.07.18.18.2.3a.46.46 0 0 1-.06.35.48.48 0 0 1-.65.15l-.02-.02a.47.47 0 0 1-.12-.63m0 5.85a.47.47 0 0 1 .4-.22.47.47 0 0 1 .45.37.46.46 0 0 1-.06.35.48.48 0 0 1-.65.14l-.02-.01a.47.47 0 0 1-.12-.63" style="stroke-width:.222222"/><g opacity=".25"><path d="M9.87 21.5a.27.27 0 0 1-.15-.06.27.27 0 0 1-.06-.37l.16-.27a2 2 0 0 0-.11-2 .27.27 0 1 1 .45-.29c.48.76.54 1.72.14 2.52a2.63 2.63 0 0 1-.2.35.27.27 0 0 1-.23.11m1.24.64a.27.27 0 0 1-.22-.43c.1-.13.2-.28.27-.43a2.94 2.94 0 0 0-.28-3.08.27.27 0 1 1 .43-.32 3.48 3.48 0 0 1 .33 3.63c-.09.19-.2.36-.31.52a.27.27 0 0 1-.22.11m-2.45-1.32a.27.27 0 0 1-.23-.4 1.07 1.07 0 0 0 .04-.97.27.27 0 0 1 .49-.22 1.6 1.6 0 0 1-.06 1.46.27.27 0 0 1-.24.13"/></g><g fill="#eb743b"><path d="M9.87 20.83a.27.27 0 0 1-.15-.05.27.27 0 0 1-.06-.38c.06-.08.11-.18.16-.27a2 2 0 0 0-.11-2 .27.27 0 1 1 .45-.28c.48.75.54 1.72.14 2.52a2.63 2.63 0 0 1-.2.34.27.27 0 0 1-.23.12m1.24.63a.27.27 0 0 1-.22-.42c.1-.14.2-.29.27-.44a2.94 2.94 0 0 0-.28-3.08.27.27 0 1 1 .43-.32 3.48 3.48 0 0 1 .33 3.64c-.09.18-.2.35-.31.51a.27.27 0 0 1-.22.11m-2.45-1.31a.27.27 0 0 1-.23-.4 1.07 1.07 0 0 0 .04-.97.27.27 0 0 1 .49-.23 1.6 1.6 0 0 1-.06 1.46.27.27 0 0 1-.24.14"/></g><g><path d="M12.6 8.76c-2.24 0-4.52.81-5.94 2.12-1.53 1.41-2.33 3.61-2.3 6.22a.89.89 0 0 0-.75.88V22a.89.89 0 0 0 .89.9h.45a.9.9 0 0 0 .2-.03v.35c0 .5.35.89.78.89h.42c.43 0 .78-.4.78-.89v-6.6c0-.48-.35-.88-.78-.88h-.42c-.38 0-.7.31-.76.73.01-.41.04-.81.1-1.13a6.6 6.6 0 0 1 1.92-3.89 8.36 8.36 0 0 1 5.42-1.91c.23 0 .72 0 .95.03v-.78c-.27-.02-.7-.03-.95-.03zM4.96 21.9a.59.59 0 0 1-.59-.59v-2.67a.59.59 0 0 1 .59-.58h.2v3.84z" opacity=".25"/><path fill="#fffedb" d="M12.6 8.1c-2.24 0-4.52.8-5.94 2.11-1.53 1.42-2.33 3.61-2.3 6.22a.89.89 0 0 0-.75.88v4.03a.89.89 0 0 0 .89.88h.45a.9.9 0 0 0 .2-.02v.35c0 .5.35.9.78.9h.42c.43 0 .78-.4.78-.9v-6.59c0-.49-.35-.89-.78-.89h-.42c-.38 0-.7.32-.76.73.01-.4.04-.8.1-1.13a6.6 6.6 0 0 1 1.92-3.89 8.36 8.36 0 0 1 5.42-1.91c.23 0 .72.01.95.03v-.77c-.27-.03-.7-.04-.95-.04zM4.96 21.24a.59.59 0 0 1-.59-.6V18a.59.59 0 0 1 .59-.6h.2v3.86z"/></g></svg>